<svg width="24" height="30" viewBox="0 0 24 30" fill="none" xmlns="http://www.w3.org/2000/svg">
<path d="M9.9 3.87323C9.56719 4.03729 9.225 4.46503 9.09844 4.89276C9 5.22089 9 5.22675 9 15.0002C9 24.7326 9 24.7853 9.09844 25.1017C9.21563 25.4943 9.50156 25.881 9.82031 26.0744L10.0547 26.2209L11.9344 26.2385C13.7531 26.256 13.8234 26.2502 14.0813 26.1271C14.4328 25.9631 14.7703 25.5471 14.9016 25.1076C15 24.7795 15 24.7736 15 15.0002C15 5.22675 15 5.22089 14.9016 4.89276C14.7703 4.45917 14.4328 4.03729 14.0859 3.87323C13.8375 3.75604 13.7391 3.75018 11.9859 3.75604C10.2563 3.75604 10.1344 3.7619 9.9 3.87323Z" fill="#565655"/>
<path d="M0.9 9.49823C0.567188 9.66229 0.225 10.09 0.0984375 10.5178C0 10.84 0 10.8928 0 17.8127C0 24.7033 0 24.7853 0.0984375 25.1017C0.215625 25.4943 0.501563 25.881 0.820313 26.0744L1.05469 26.2209L2.93438 26.2385C4.75313 26.256 4.82344 26.2502 5.08125 26.1271C5.43281 25.9631 5.77031 25.5471 5.90156 25.1076C6 24.7853 6 24.7326 6 17.8127C6 10.8928 6 10.84 5.90156 10.5178C5.77031 10.0842 5.43281 9.66229 5.08594 9.49823C4.8375 9.38104 4.73906 9.37518 2.98594 9.38104C1.25625 9.38104 1.13438 9.3869 0.9 9.49823Z" fill="#565655"/>
<path d="M18.9 13.2482C18.5672 13.4123 18.225 13.84 18.0984 14.2678C18 14.59 18 14.6662 18 19.6877C18 24.6857 18 24.7853 18.0984 25.1017C18.2156 25.4943 18.5016 25.881 18.8203 26.0744L19.0547 26.2209L20.9344 26.2385C22.7531 26.256 22.8234 26.2502 23.0813 26.1271C23.4328 25.9631 23.7703 25.5471 23.9016 25.1076C24 24.7853 24 24.7092 24 19.6877C24 14.6662 24 14.59 23.9016 14.2678C23.7703 13.8342 23.4328 13.4123 23.0859 13.2482C22.8375 13.131 22.7391 13.1252 20.9859 13.131C19.2563 13.131 19.1344 13.1369 18.9 13.2482Z" fill="#565655"/>
</svg>
