<svg width="48" height="48" viewBox="0 0 48 48" fill="none" xmlns="http://www.w3.org/2000/svg">
<path d="M13.9928 13.6918C13.2968 14.2438 13.3208 13.7998 13.3208 23.9998C13.3208 34.5838 13.2728 34.0318 14.2088 34.4518C14.6768 34.6678 15.2048 34.6798 23.9408 34.6798C32.6768 34.6798 33.2048 34.6678 33.6728 34.4518C34.6088 34.0318 34.5608 34.5838 34.5608 23.9998C34.5608 13.7998 34.5848 14.2438 33.8888 13.6918C33.5648 13.4398 33.5168 13.4398 23.9408 13.4398C14.3648 13.4398 14.3168 13.4398 13.9928 13.6918ZM19.1888 16.7638C19.9208 17.3278 20.1848 18.5398 19.7048 19.1878C18.7808 20.4478 17.0288 20.2918 16.5008 18.9118C16.1408 17.9878 16.5488 17.0158 17.4608 16.6078C17.9288 16.3918 18.7808 16.4638 19.1888 16.7638ZM29.5568 21.5278C30.2768 21.8398 30.8888 22.5598 31.2008 23.4838C31.4768 24.2518 31.4888 24.4918 31.5368 27.9238L31.5848 31.5598H30.0248H28.4768L28.4168 28.4638C28.3568 25.1038 28.2848 24.7558 27.6608 24.2638C26.9408 23.6998 25.6208 24.0238 25.1648 24.8878C24.9248 25.3558 24.9008 25.5598 24.8648 28.4638L24.8168 31.5598H23.2688H21.7208V26.5198V21.4798H23.2208H24.7208V22.1638V22.8598L25.0328 22.4638C25.3928 22.0078 26.0768 21.5518 26.6528 21.3718C27.2168 21.1918 29.0048 21.2998 29.5568 21.5278ZM19.7648 26.4838L19.7408 31.4998L18.1568 31.5358L16.5608 31.5718V26.5198V21.4798H18.1808H19.7888L19.7648 26.4838Z" fill="#565655"/>
</svg>
