<svg width="26" height="26" viewBox="0 0 26 26" fill="none" xmlns="http://www.w3.org/2000/svg">
<path d="M12.2129 1.40664C10.3238 1.56914 8.32809 2.275 6.73864 3.33633C4.02184 5.14922 2.22927 7.93711 1.6656 11.2227C1.50817 12.1418 1.50817 13.5789 1.67067 14.4879C2.12263 17.0473 3.23474 19.2004 5.02731 20.9625C6.40348 22.3234 8.27731 23.4152 10.0547 23.8875L10.5168 24.0145L10.5015 23.598L10.4863 23.1816L9.59762 23.1766C8.88161 23.1715 8.63278 23.1461 8.31793 23.0648C7.4902 22.8414 7.19059 22.6078 6.84528 21.9172C6.3527 20.932 6.20544 20.7187 5.62653 20.1602L5.07809 19.627V19.307C5.07809 18.9922 5.07809 18.9871 5.25583 18.9109C5.67731 18.7383 6.45426 18.8855 6.99762 19.2461C7.23122 19.4035 7.36325 19.5457 7.57145 19.8656C7.90153 20.3684 8.40934 20.9016 8.75973 21.1047C8.98825 21.2367 9.05934 21.252 9.44528 21.252C9.70934 21.252 9.98864 21.2164 10.1664 21.1605L10.4507 21.0742L10.5675 20.7289C10.6285 20.541 10.73 20.282 10.7961 20.1551C10.923 19.9012 10.9129 19.8555 10.7351 19.8555C10.466 19.8555 9.38434 19.5355 8.9527 19.3273C7.33278 18.5453 6.52536 17.4484 6.1902 15.5898C6.14958 15.3512 6.12419 14.823 6.12419 14.1934C6.12419 13.325 6.13942 13.1168 6.23083 12.7461C6.36794 12.1926 6.632 11.573 6.92653 11.1008L7.15505 10.7301L7.07887 10.3035C6.94684 9.62304 7.06872 8.39922 7.32262 7.80508L7.42419 7.5664H7.73903C8.59723 7.5664 9.60778 7.91679 10.5015 8.52617L10.791 8.72422L11.4257 8.59219C12.03 8.46523 12.1367 8.46015 13.5839 8.46015C15.0211 8.46523 15.1429 8.47031 15.6914 8.59219L16.2754 8.71914L16.4785 8.58203C17.3976 7.9625 18.4742 7.5664 19.2664 7.5664C19.5558 7.5664 19.6066 7.58164 19.698 7.69336C19.9824 8.06406 20.1449 9.83125 19.9621 10.6184C19.9265 10.7707 19.9367 10.8164 20.0332 10.9078C20.2007 11.0703 20.6984 12.1012 20.8304 12.5684C20.9371 12.9391 20.9472 13.0711 20.9421 14.1172C20.9421 14.9398 20.9168 15.3867 20.8558 15.7168C20.6832 16.6664 20.3328 17.4687 19.7742 18.1746C19.2156 18.8805 18.3066 19.3781 16.9254 19.7336C16.5445 19.8301 16.2195 19.9164 16.2144 19.9266C16.2043 19.9367 16.2703 20.0992 16.3617 20.2922L16.5293 20.6426L16.5546 22.1762L16.58 23.7098L17.1132 23.4914C20.9878 21.9273 23.6793 18.5301 24.3597 14.3457C24.4918 13.5281 24.4816 12.0656 24.3343 11.2227C23.7707 7.93711 21.9781 5.14922 19.2562 3.33125C17.1691 1.93984 14.498 1.20859 12.2129 1.40664Z" fill="#565655"/>
</svg>
