<svg width="24" height="24" viewBox="0 0 24 24" fill="none" xmlns="http://www.w3.org/2000/svg">
<path d="M13.8145 0.202436C13.6438 0.309105 11.0838 2.81577 8.15048 5.77044C2.33715 11.6158 2.41181 11.5304 2.08115 13.0664C1.88915 14.0051 1.87848 14.6878 2.07048 15.5838C2.37981 17.0131 2.66781 17.4184 5.48381 20.2451C6.89181 21.6744 8.27848 22.9864 8.56648 23.1678C9.66515 23.8718 11.3825 24.1491 12.8011 23.8504C14.1558 23.5624 14.6145 23.2638 16.3531 21.5571C18.2091 19.7331 18.3798 19.5304 18.3798 18.9971C18.3798 18.1544 17.8145 17.5998 16.9718 17.5998C16.4705 17.5998 16.3318 17.7064 14.4011 19.5838C13.7291 20.2344 13.0251 20.8531 12.8331 20.9491C12.2891 21.2264 11.4251 21.2798 10.7105 21.0771C10.1025 20.8958 10.0171 20.8211 7.64915 18.4211C6.31581 17.0558 5.13181 15.7758 5.01448 15.5624C4.70515 14.9651 4.64115 14.2078 4.85448 13.4824C5.02515 12.8744 5.13181 12.7571 7.49981 10.3678C8.86515 8.99177 10.1131 7.7971 10.2945 7.71177C10.7318 7.4771 11.8411 7.41311 12.4491 7.5731C12.8651 7.69044 13.2278 7.9891 14.6785 9.35444C15.6385 10.2504 16.5451 11.0078 16.6945 11.0504C17.6651 11.2958 18.6038 10.3251 18.3371 9.35444C18.2731 9.10911 17.7291 8.5011 16.5131 7.2851C14.7851 5.57844 14.3585 5.25844 13.1851 4.86377C13.0145 4.79977 13.2065 4.5651 14.3798 3.37044C15.7558 1.98377 15.7878 1.9411 15.7878 1.48244C15.7878 0.885103 15.4678 0.35177 14.9878 0.149103C14.4971 -0.0535622 14.1985 -0.0428963 13.8145 0.202436Z" fill="#565655"/>
<path d="M10.178 13.12C9.85798 13.248 9.51664 13.7173 9.43131 14.144C9.34598 14.6027 9.53798 15.072 9.94331 15.4133L10.2633 15.68H15.746H21.2286L21.6126 15.328C22.1246 14.8587 22.2206 14.208 21.8473 13.6533C21.7086 13.4507 21.474 13.2267 21.3353 13.152C21.1326 13.0453 19.7993 13.0133 15.7353 13.024C12.802 13.024 10.2953 13.0667 10.178 13.12Z" fill="#565655"/>
</svg>
