<?xml version="1.0" encoding="UTF-8"?>
<svg xmlns="http://www.w3.org/2000/svg" xmlns:xlink="http://www.w3.org/1999/xlink" viewBox="0 0 26 26" width="26px" height="26px">
<g id="surface259485">
<path style=" stroke:none;fill-rule:nonzero;fill:rgb(14.901961%,19.607843%,21.960784%);fill-opacity:1;" d="M 20.582031 3.25 L 5.417969 3.25 C 4.21875 3.25 3.25 4.21875 3.25 5.417969 L 3.25 20.582031 C 3.25 21.78125 4.21875 22.75 5.417969 22.75 L 20.582031 22.75 C 21.78125 22.75 22.75 21.78125 22.75 20.582031 L 22.75 5.417969 C 22.75 4.21875 21.78125 3.25 20.582031 3.25 Z M 9.75 18.417969 L 7.015625 18.417969 L 7.015625 10.832031 L 9.75 10.832031 Z M 8.335938 9.445312 C 7.5 9.445312 6.941406 8.886719 6.941406 8.144531 C 6.941406 7.398438 7.5 6.84375 8.425781 6.84375 C 9.261719 6.84375 9.820312 7.398438 9.820312 8.144531 C 9.820312 8.886719 9.261719 9.445312 8.335938 9.445312 Z M 19.5 18.417969 L 16.855469 18.417969 L 16.855469 14.273438 C 16.855469 13.125 16.148438 12.863281 15.886719 12.863281 C 15.621094 12.863281 14.738281 13.039062 14.738281 14.273438 C 14.738281 14.449219 14.738281 18.417969 14.738281 18.417969 L 12.003906 18.417969 L 12.003906 10.832031 L 14.738281 10.832031 L 14.738281 11.890625 C 15.089844 11.273438 15.796875 10.832031 17.117188 10.832031 C 18.441406 10.832031 19.5 11.890625 19.5 14.273438 Z M 19.5 18.417969 "/>
</g>
</svg>
