<svg width="20" height="13" viewBox="0 0 20 13" fill="none" xmlns="http://www.w3.org/2000/svg">
<path d="M1.17858 0.862885C0.657359 1.02209 0.25672 1.36705 0.0739043 1.81814C0.0038897 1.99393 0 2.15977 0 6.76687C0 11.4005 0.0038897 11.5365 0.0739043 11.7189C0.25672 12.1733 0.661249 12.5183 1.19803 12.6742C1.40807 12.7339 1.64534 12.7372 9.95763 12.7372C18.2699 12.7372 18.5072 12.7339 18.7172 12.6742C19.254 12.5183 19.6585 12.1733 19.8413 11.7189C19.9114 11.5365 19.9153 11.4005 19.9153 6.76687C19.9153 2.13324 19.9114 1.99724 19.8413 1.81482C19.6585 1.36041 19.254 1.01546 18.7172 0.859568C18.5072 0.799865 18.2738 0.796548 9.94207 0.799865C1.6998 0.799865 1.37306 0.803182 1.17858 0.862885ZM14.4424 4.71042C11.1829 7.47667 10.9962 7.62924 10.7278 7.74202C10.3972 7.88132 10.0665 7.92776 9.71646 7.88796C9.56866 7.87137 9.35861 7.81499 9.18747 7.74202C8.91908 7.62924 8.73237 7.47667 5.47281 4.71042L2.04209 1.79492H9.95763H17.8732L14.4424 4.71042ZM3.92859 4.85636L6.16517 6.76687L3.6641 8.8996L1.16691 11.029V6.78677V2.54784L1.43141 2.74685C1.57533 2.85962 2.69945 3.80824 3.92859 4.85636ZM18.7483 6.79008V11.029L16.2512 8.89628L13.7501 6.76687L16.2239 4.66067C17.5853 3.50309 18.7094 2.55447 18.7211 2.55447C18.7367 2.55447 18.7483 4.46166 18.7483 6.79008ZM7.42932 7.84816C8.39008 8.67405 8.9852 8.92945 9.95763 8.92945C10.4827 8.92945 10.8523 8.85648 11.2723 8.67737C11.6185 8.52811 11.8869 8.34568 12.4354 7.88464L12.871 7.51979L13.2522 7.82162C13.4622 7.98746 14.5864 8.93608 15.7533 9.93113L17.8732 11.7421H9.95763H2.04209L4.51594 9.63593C5.87733 8.47836 7.00924 7.52974 7.02868 7.52974C7.04424 7.52974 7.22706 7.67236 7.42932 7.84816Z" fill="#565655"/>
</svg>
