<svg width="24" height="30" viewBox="0 0 24 30" fill="none" xmlns="http://www.w3.org/2000/svg">
<path d="M12 29.1667C10.4352 29.1667 9.16669 27.8982 9.16669 26.3334H14.8334C14.8334 27.8982 13.5648 29.1667 12 29.1667ZM23.3334 24.9167H0.666687V22.0834L3.50002 20.6667V12.875C3.50002 7.97054 5.5131 4.79012 9.16669 3.92171V0.833374H13.4167C12.4929 2.05729 11.9954 3.55 12 5.08337C12 5.43949 12.0265 5.79512 12.0794 6.14729H12C10.2715 6.03534 8.60428 6.80838 7.57294 8.20004C6.69113 9.59483 6.25846 11.2266 6.33335 12.875V22.0834H17.6667V12.875C17.6667 12.5761 17.6568 12.2885 17.6369 12.025C18.574 12.2186 19.5404 12.222 20.4788 12.035C20.4944 12.3339 20.5 12.6186 20.5 12.885V20.6667L23.3334 22.0834V24.9167ZM19.0834 9.33338C18.2274 9.33441 17.3912 9.07609 16.6849 8.59246C15.0158 7.45145 14.3815 5.29248 15.1684 3.42999C15.9552 1.56749 17.9452 0.517149 19.9268 0.918427C21.9085 1.3197 23.3331 3.0615 23.3334 5.08337C23.3334 7.43058 21.4306 9.33338 19.0834 9.33338Z" fill="#343A40"/>
</svg>
